<svg width="26" height="17" viewBox="0 0 26 17" fill="none" xmlns="http://www.w3.org/2000/svg">
<path fill-rule="evenodd" clip-rule="evenodd" d="M23.9853 13.8975C23.9853 15.0191 18.8874 16.2487 13.4801 16.2487C8.07277 16.2487 3.65161 14.2996 3.65161 13.178C3.65161 12.0564 8.7896 11.8677 14.1955 11.8677C19.6015 11.8677 23.9853 12.7759 23.9853 13.8975Z" fill="#E2CAB3"/>
<path fill-rule="evenodd" clip-rule="evenodd" d="M24.8221 15.0427C24.8373 15.6418 23.5349 16.1615 21.912 16.2026C20.2891 16.2436 18.9604 15.7922 18.9452 15.1918C18.93 14.5913 20.2325 14.0729 21.8553 14.0319C23.4782 13.9909 24.8069 14.4422 24.8221 15.0427Z" fill="#E2CAB3"/>
<path fill-rule="evenodd" clip-rule="evenodd" d="M1.19291 10.7791C0.32829 12.8089 1.38075 13.8717 2.78265 14.0468C3.33512 14.1151 4.16383 13.7363 4.77707 13.4996C5.27603 13.2802 5.74973 13.0082 6.19002 12.6885C6.39857 12.4765 6.64442 12.1879 6.69415 11.8679C6.70083 11.7442 6.67413 11.621 6.6168 11.5109C6.63239 11.4647 6.65523 11.4214 6.68448 11.3823C6.75906 11.2455 6.55741 11.1402 6.65824 10.987C6.81845 10.7422 6.60713 10.4782 6.50354 10.2607C6.46901 10.1909 5.57815 9.40719 5.53672 9.33196C4.79364 8.55369 4.59337 8.18712 3.5713 8.02708C2.28818 7.82465 1.04374 8.28833 1.19291 10.7791Z" fill="#5F825C"/>
<g style="mix-blend-mode:multiply" opacity="0.4">
<path fill-rule="evenodd" clip-rule="evenodd" d="M1.65703 10.0295C1.80343 10.0473 1.87526 10.4399 1.81448 10.9104C1.75371 11.3809 1.58797 11.742 1.44018 11.7242C1.2924 11.7065 1.22334 11.3139 1.28273 10.8434C1.34212 10.3729 1.50234 10.0104 1.65703 10.0295Z" fill="#5F825C"/>
</g>
<path fill-rule="evenodd" clip-rule="evenodd" d="M1.79517 12.2303C1.48164 12.3671 1.51065 12.7679 1.63772 13.0278C1.64084 13.0319 1.64318 13.0365 1.64462 13.0414C1.67446 13.1013 1.71157 13.1573 1.75512 13.2083C1.90903 13.4024 2.12144 13.5428 2.36145 13.6091C2.66255 13.6843 3.00785 13.6337 3.18187 13.3971C3.18613 13.3898 3.19306 13.3844 3.20121 13.382V13.3519C3.16254 13.1987 2.92497 13.1686 2.79791 13.1495C2.52167 13.1071 2.44018 12.8664 2.35593 12.6434C2.27168 12.4205 2.07141 12.1045 1.79517 12.2303Z" fill="#8DB54F"/>
<g style="mix-blend-mode:multiply" opacity="0.4">
<path fill-rule="evenodd" clip-rule="evenodd" d="M4.63206 9.21556C4.37654 9.35234 4.6141 9.66146 4.73703 9.80782C5.01326 10.147 5.39171 10.3905 5.62236 10.7762C5.85302 11.1619 5.55192 11.7597 5.9207 12.0852C5.93848 12.1009 5.95923 12.113 5.98176 12.1207C6.0043 12.1284 6.02815 12.1315 6.05193 12.13C6.07572 12.1285 6.09895 12.1223 6.12029 12.1118C6.14163 12.1013 6.16064 12.0866 6.17622 12.0688C6.19238 12.0429 6.20448 12.0148 6.21213 11.9853C6.25702 11.9286 6.29203 11.8648 6.31572 11.7966C6.37786 11.5826 6.36963 11.3546 6.29224 11.1455C6.23423 10.9581 6.36406 10.7762 6.30743 10.5888C6.28148 10.519 6.23993 10.4559 6.18589 10.4042C6.12923 10.3391 6.06422 10.2816 5.99252 10.2332C5.85883 10.1231 5.73541 10.0013 5.62375 9.86937C5.48999 9.71238 5.34306 9.56687 5.18453 9.43441C5.01741 9.27711 4.80056 9.12392 4.63206 9.21556Z" fill="#5F825C"/>
</g>
<path fill-rule="evenodd" clip-rule="evenodd" d="M1.42785 10.9049C1.28973 10.8816 1.20272 10.8269 0.756596 10.7175C0.310475 10.6081 0.0839615 10.5834 0.0149025 10.5424C-0.0541564 10.5014 0.139209 10.2866 0.139209 10.2866C0.139209 10.2866 0.473454 10.4138 0.748309 10.515C1.02316 10.6163 1.52591 10.7503 1.52591 10.7503C1.52591 10.7503 1.60464 10.7941 1.57287 10.8652C1.54111 10.9363 1.42785 10.9049 1.42785 10.9049Z" fill="#300D33"/>
<path fill-rule="evenodd" clip-rule="evenodd" d="M24.8609 6.95083C24.4866 7.037 24.1703 7.26132 23.7808 7.28047C23.3665 7.30099 22.9521 7.13001 22.5474 7.05205C21.6676 6.88244 20.7671 6.78806 19.8776 6.69095C18.0821 6.49399 16.2631 6.40919 14.4606 6.20402C12.6582 5.99885 10.8696 5.76495 9.06575 5.77316C8.19674 5.77532 7.32949 5.85036 6.47327 5.99748C5.76749 6.11921 5.04928 6.26146 4.45813 6.68138C4.00316 7.01281 3.66029 7.47301 3.47473 8.0013C3.23441 8.64417 4.50371 12.5807 4.6957 12.8392C6.36416 15.0277 9.16519 15.5064 13.7742 15.4148C18.6995 15.3163 20.6027 14.7733 21.9977 13.5532C22.7477 12.898 23.3789 11.2129 23.4922 10.8832C23.6841 10.3019 23.8969 9.72883 24.0957 9.15025C24.2214 8.78368 24.3526 8.42121 24.5101 8.06696C24.6767 7.73414 24.8153 7.38828 24.9244 7.0329C24.9276 7.02322 24.9283 7.01294 24.9265 7.00292C24.9248 6.99291 24.9206 6.98346 24.9144 6.9754C24.9081 6.96733 24.9 6.96088 24.8907 6.95661C24.8814 6.95233 24.8712 6.95035 24.8609 6.95083Z" fill="#DA840D"/>
<path fill-rule="evenodd" clip-rule="evenodd" d="M24.1151 7.22012C23.4866 7.65782 22.582 7.6756 21.8458 7.81922C20.0282 8.17485 18.2161 8.41968 16.3611 8.37591C14.5463 8.33488 12.73 8.12287 10.9221 7.97515C9.07403 7.82469 7.22187 7.71663 5.36833 7.80007C4.95886 7.8149 4.55266 7.87827 4.15842 7.98883C3.95676 8.04627 3.65567 8.12561 3.55484 8.33078C3.52997 8.38402 3.51634 8.44174 3.51479 8.50038V8.50996C3.42363 8.81361 3.52998 9.06802 3.63495 9.33747C3.65981 9.451 3.68743 9.56453 3.71368 9.67806C3.66672 9.67806 3.65981 9.74918 3.71368 9.75055H3.72887C3.73457 9.75695 3.74159 9.76208 3.74945 9.76559C3.7573 9.76911 3.76583 9.77092 3.77445 9.77092C3.78307 9.77092 3.79159 9.76911 3.79945 9.76559C3.80731 9.76208 3.81432 9.75695 3.82003 9.75055C4.14599 9.75055 4.46918 9.69037 4.79652 9.68216C5.28822 9.66848 5.70534 9.91742 6.13488 10.1226C6.90558 10.4864 7.63346 10.9118 8.41383 11.2346C8.762 11.3789 9.12019 11.4982 9.48563 11.5916C9.84999 11.6692 10.2191 11.7231 10.5906 11.753C10.9856 11.8036 11.3765 11.8898 11.7701 11.9431C12.211 11.9949 12.6555 12.009 13.0988 11.9855C14.8594 11.9548 16.6146 11.7833 18.3473 11.4726C19.9218 11.1799 21.4964 10.7395 22.8679 9.89827C23.4102 9.57177 23.8695 9.12627 24.2104 8.59613C24.3678 8.35129 24.5018 8.08731 24.6482 7.83563C24.7559 7.64824 24.8858 7.42529 24.8664 7.20781C24.8347 6.73456 24.3084 7.08745 24.1151 7.22012Z" fill="#C66720"/>
<path opacity="0.4" fill-rule="evenodd" clip-rule="evenodd" d="M13.5241 14.4957C6.68729 15.4531 4.64038 12.7271 4.70254 12.8078C6.371 14.9963 9.17342 15.475 13.781 15.3834C18.7063 15.2863 20.7076 14.7104 22.104 13.4904C22.8112 12.8707 23.5943 10.5852 23.7504 10.1406C20.3292 12.9282 19.3527 13.675 13.5241 14.4957Z" fill="#C66720"/>
<path fill-rule="evenodd" clip-rule="evenodd" d="M25.9961 4.72117C25.9174 4.24108 25.1674 4.17406 24.7973 4.03728C24.4699 3.91691 24.2448 3.62694 23.9782 3.40946C23.6906 3.17396 23.3706 2.98008 23.028 2.83361C22.2476 2.49987 21.4659 2.23315 20.7546 1.76126C20.0999 1.32493 19.296 1.26885 18.5447 1.14712C18.0802 1.07531 17.6256 0.950937 17.1897 0.776448C16.8026 0.59626 16.3936 0.466163 15.9729 0.389361C15.5392 0.331914 15.0931 0.430395 14.6594 0.448176C14.1788 0.467326 13.7368 0.311397 13.2851 0.174617C12.9165 0.0423829 12.5249 -0.0157412 12.1332 0.00364233C11.7686 0.0337339 11.4426 0.225225 11.136 0.413982C11.1283 0.418214 11.1219 0.424342 11.1173 0.43177C11.1127 0.439198 11.1101 0.447676 11.1098 0.456383C10.7631 0.635565 10.4302 0.835263 10.0822 1.01581C9.79174 1.17445 9.48023 1.29186 9.15679 1.3646C8.76039 1.44667 8.38747 1.38101 7.99383 1.33041C7.30324 1.2415 6.64995 1.22509 5.99527 1.47539C5.21628 1.77357 4.59613 2.38087 3.82405 2.70641C3.1597 2.97997 2.58099 3.30414 2.16664 3.91007C1.99417 4.16438 1.87662 4.45123 1.82134 4.75263C1.77024 5.0768 1.84897 5.37088 1.91802 5.68821C2.00918 6.09855 1.92769 6.42682 1.80891 6.82211C1.70769 7.08276 1.71515 7.37254 1.82963 7.62774C1.93736 7.83565 2.16664 7.96969 2.36691 8.07638C2.56718 8.18307 3.07822 8.29796 3.12103 8.5469C3.30335 9.60284 4.50221 9.1077 5.20799 9.36758C5.55467 9.49752 5.8751 9.69449 6.2273 9.82169C6.63199 9.96805 7.05601 10.0775 7.47037 10.1883C8.29907 10.4098 9.09739 10.7053 9.90262 11.0089C10.2576 11.1457 10.5932 11.3153 10.973 11.3837C11.3529 11.4521 11.7451 11.3906 12.1208 11.3577C12.9012 11.288 15.3693 11.4945 15.6967 11.329C16.1207 11.1225 16.5143 11.1416 16.9729 11.1799C17.3306 11.21 17.64 10.9474 17.9991 10.9187C18.4119 10.8784 18.819 10.7935 19.2132 10.6656C19.5647 10.5311 19.9229 10.4142 20.2863 10.3155C20.7007 10.2238 21.0626 9.92701 21.4811 9.87093C22.2946 9.76014 22.8912 9.30877 23.5211 8.7849C24.0929 8.31028 25.445 6.67439 25.5624 6.35022C25.6798 6.02605 25.7669 5.66632 25.8622 5.33121C25.9146 5.14382 26.0293 4.92087 25.9961 4.72117Z" fill="#F0A508"/>
<g opacity="0.5">
<path opacity="0.5" fill-rule="evenodd" clip-rule="evenodd" d="M13.2355 2.3098C13.1208 2.45889 12.9827 2.49992 12.9951 3.42729C13.0076 4.35465 13.0973 4.70481 12.7369 5.40786C12.3764 6.1109 11.6775 6.79344 11.4303 7.54162C11.183 8.2898 10.8709 9.51809 11.1872 9.99545C11.5035 10.4728 12.6554 10.7081 14.2258 10.7505C15.7962 10.7929 17.5185 10.5385 18.4867 10.2403C19.4549 9.9421 20.0143 9.819 20.2339 9.55639C20.4535 9.29377 19.3582 7.05058 18.5917 6.17519C17.8251 5.2998 17.4577 5.00983 16.5931 4.2849C15.7285 3.55996 15.35 3.27136 14.9233 2.68594C14.4965 2.10052 14.386 2.06906 13.9371 2.0759C13.6836 2.07519 13.4369 2.15741 13.2355 2.3098Z" fill="#E2CAB3"/>
<path opacity="0.5" fill-rule="evenodd" clip-rule="evenodd" d="M4.51196 8.20369C5.12106 6.81264 5.92491 6.17935 6.15004 5.86475C6.77019 4.99894 7.13759 4.62006 7.95939 4.49696C8.78119 4.37385 8.33092 4.37796 9.2646 4.24802C10.1983 4.11808 10.9814 3.91701 11.6126 3.42734C12.2438 2.93767 12.5698 2.55605 12.9054 2.43705C13.241 2.31806 13.759 2.0527 13.3916 2.42748C13.0242 2.80226 13.5145 2.94451 12.8239 3.96078C12.1333 4.97705 11.8046 5.50229 11.5587 6.28603C11.3129 7.06978 11.0588 9.5154 10.4966 9.70826C9.93447 9.90112 8.59335 9.93532 7.34752 9.4771C6.38081 9.1013 5.43436 8.67626 4.51196 8.20369Z" fill="#E2CAB3"/>
<path opacity="0.5" fill-rule="evenodd" clip-rule="evenodd" d="M21.3486 8.82888C21.3486 8.82888 22.5033 8.47188 23.1662 7.90151C23.8292 7.33114 24.4922 6.79907 24.7021 6.01532C24.912 5.23157 25.1496 5.03598 24.8927 4.80345C24.6358 4.57093 23.2615 3.33581 22.1304 2.72714C20.9992 2.11847 19.5614 1.73412 18.2824 1.4674C17.0034 1.20068 16.3253 1.35661 15.6581 1.33062C14.991 1.30463 13.9344 2.06649 13.9496 2.0747C14.319 2.42646 14.7299 2.73279 15.1733 2.98702C15.7728 3.29888 17.1705 3.82685 17.8528 4.21804C18.5351 4.60923 19.0766 5.47367 19.234 5.87854C19.3915 6.28341 19.6125 6.40925 19.8376 7.18479C20.0627 7.96033 20.687 9.20913 20.687 9.20913L21.3486 8.82888Z" fill="#E2CAB3"/>
<path opacity="0.5" fill-rule="evenodd" clip-rule="evenodd" d="M2.63099 4.11662C2.63099 4.11662 2.09785 5.53502 2.37409 6.21755C2.56566 6.66525 2.82662 7.08059 3.14755 7.44857C3.14755 7.44857 3.83814 8.10238 4.30912 7.42532C4.7801 6.74826 5.80079 5.16709 6.61155 4.55705C7.4223 3.94701 8.43194 3.8157 9.18054 3.7268C9.92914 3.63789 11.6874 3.33834 12.1736 2.94578C12.6597 2.55323 13.9498 2.0745 13.9498 2.0745C13.3917 1.82076 12.8103 1.6206 12.2136 1.47677C11.3103 1.2716 9.8656 1.82009 8.69298 1.54653C7.52036 1.27297 6.37675 1.88985 5.07844 2.54639C4.21629 2.99533 3.39711 3.5209 2.63099 4.11662Z" fill="#E2CAB3"/>
<path opacity="0.5" fill-rule="evenodd" clip-rule="evenodd" d="M10.3655 1.21278C10.3655 1.21278 11.5795 0.0788792 12.4041 0.0993962C13.4469 0.126752 13.7853 0.353806 14.2839 0.509735C14.8515 0.684813 15.0781 0.754571 14.9317 0.980258C14.7853 1.20594 14.0947 2.21128 14.0947 2.21128C14.0947 2.21128 12.4372 1.40564 11.8295 1.31263C11.3448 1.2426 10.8553 1.20922 10.3655 1.21278Z" fill="#E2CAB3"/>
</g>
<path opacity="0.4" fill-rule="evenodd" clip-rule="evenodd" d="M22.3056 2.46842C21.9783 2.33164 21.6496 2.21812 21.3278 2.06629C20.9509 1.87465 20.5636 1.70387 20.1676 1.55473C19.8103 1.44618 19.4436 1.37063 19.0723 1.32905C18.2325 1.19227 17.4618 0.848951 16.6566 0.602747C16.1949 0.462084 15.7125 0.400108 15.2298 0.419462C14.81 0.446818 14.3887 0.446818 13.9688 0.419462C13.5545 0.375693 13.1898 0.185569 12.7865 0.0802487C12.2962 -0.0483242 11.8888 0.0802487 11.4537 0.311406C10.8115 0.641046 10.1706 1.04318 9.47448 1.25382C9.10269 1.3739 8.7136 1.43304 8.32257 1.4289C7.90822 1.41522 7.5132 1.33315 7.10575 1.3058C6.65689 1.25833 6.20373 1.34002 5.80054 1.54106C5.49453 1.70167 5.20616 1.89327 4.94006 2.1128C4.93868 2.13694 4.93868 2.16114 4.94006 2.18529C4.85974 2.41767 4.831 2.66447 4.85581 2.90885C4.86796 3.15822 4.93391 3.40212 5.04922 3.62414C5.16453 3.84615 5.32653 4.04113 5.5243 4.19595C5.81159 4.43668 6.11269 4.62134 6.35301 4.90994C6.59334 5.19855 6.76736 5.49946 7.0436 5.73062C7.49386 6.11087 8.09192 6.14096 8.6582 6.14096C8.95653 6.14096 9.25349 6.12591 9.55044 6.14096C9.95802 6.18346 10.3588 6.27533 10.7438 6.41452C11.5393 6.66072 12.3197 7.0013 13.1415 7.16134C13.9633 7.32137 14.7782 7.12851 15.5765 6.9165C16.3748 6.70449 17.1621 6.56224 17.9439 6.35707C18.6507 6.185 19.3215 5.8915 19.9259 5.48989C20.5709 5.02586 21.1542 4.48312 21.662 3.87452C21.8567 3.6502 22.0418 3.41767 22.2338 3.19062C22.4046 3.01952 22.5187 2.80103 22.5611 2.56417C22.4744 2.53653 22.3891 2.50457 22.3056 2.46842Z" fill="#E2CAB3"/>
<path fill-rule="evenodd" clip-rule="evenodd" d="M11.2853 3.4082C11.2218 3.42188 11.1582 3.43282 11.0988 3.44103H11.0795C10.6458 3.52447 10.2163 3.62842 9.77014 3.59422C9.46904 3.57234 8.29228 3.6038 8.56851 4.14134C8.57178 4.15064 8.57178 4.16076 8.56851 4.17007C8.8116 4.32326 9.35164 4.26034 9.53534 4.24666C9.69108 4.23612 9.84577 4.21372 9.99803 4.17964C10.4312 4.0095 10.8432 3.79058 11.2259 3.5272C11.2506 3.49015 11.2706 3.45017 11.2853 3.4082Z" fill="#C66720"/>
<path fill-rule="evenodd" clip-rule="evenodd" d="M12.9979 4.51034C13.0265 4.22396 13.0163 3.93507 12.9676 3.65137C12.783 4.08543 12.5465 4.49597 12.2632 4.87418C12.0974 5.08071 11.8778 5.2599 11.7438 5.48969C11.672 5.61279 11.5726 5.79607 11.6251 5.94653C11.7079 6.18316 11.8543 6.18179 12.0104 6.15033C12.2784 5.9862 12.5242 5.60321 12.6568 5.40625C12.7795 5.2238 12.8792 5.02721 12.9537 4.82083C12.9689 4.71825 12.9828 4.61566 12.9979 4.51034Z" fill="#C66720"/>
<path fill-rule="evenodd" clip-rule="evenodd" d="M17.4136 3.68989C17.0898 3.55928 16.7592 3.4456 16.4233 3.34931C16.2182 3.2965 16.0178 3.22743 15.8239 3.14278C15.6751 3.05428 15.5068 3.00267 15.3336 2.99232C15.3231 2.99163 15.3126 2.99365 15.3032 2.99816C15.2937 3.00267 15.2856 3.00953 15.2796 3.01807C15.2737 3.02661 15.27 3.03654 15.2691 3.04689C15.2681 3.05723 15.2699 3.06765 15.2742 3.07712C15.2879 3.12065 15.3149 3.15888 15.3515 3.18655C15.5575 3.47179 15.7856 3.7407 16.0338 3.99081C16.2562 4.23975 16.4482 4.50784 16.6968 4.739C17.0338 5.06043 17.6429 5.25602 17.9882 4.81286C18.3694 4.31908 17.8501 3.87181 17.4136 3.68989Z" fill="#C66720"/>
<path fill-rule="evenodd" clip-rule="evenodd" d="M16.0213 1.26592C15.9039 1.01561 15.5227 1.02245 15.27 1.08127C15.2494 1.08392 15.2291 1.08803 15.2092 1.09358C14.8594 1.27178 14.588 1.57119 14.4468 1.93477C14.8611 1.81304 15.1664 1.52443 15.6042 1.47382C15.6746 1.46562 16.1014 1.43416 16.0213 1.26592Z" fill="#C66720"/>
<path fill-rule="evenodd" clip-rule="evenodd" d="M10.1762 1.72033C10.2317 1.73784 10.2893 1.74796 10.3474 1.75042C10.4842 1.72723 10.6231 1.71806 10.7618 1.72306C10.8156 1.72038 10.8696 1.72038 10.9234 1.72306C11.1043 1.73024 11.2846 1.7476 11.4634 1.77504L11.5339 1.79419C11.6322 1.8045 11.7309 1.77763 11.8101 1.71896C11.4054 1.54251 10.2908 1.12397 10.1389 1.66425C10.1368 1.67653 10.1395 1.68915 10.1464 1.69956C10.1533 1.70996 10.1639 1.71739 10.1762 1.72033Z" fill="#C66720"/>
<path fill-rule="evenodd" clip-rule="evenodd" d="M2.60057 7.64023C2.56823 7.71139 2.54503 7.7863 2.53152 7.86318C2.51084 7.9204 2.49875 7.9803 2.49561 8.04099C2.49626 8.04481 2.49781 8.04843 2.50014 8.05154C2.50247 8.05466 2.5055 8.05718 2.509 8.05892C2.5125 8.06065 2.51636 8.06154 2.52028 8.06151C2.52419 8.06149 2.52804 8.06055 2.53152 8.05878C2.57295 8.03552 2.57433 7.96577 2.58124 7.922C2.59376 7.82905 2.61503 7.73746 2.64477 7.64844C2.65582 7.62792 2.61301 7.61424 2.60057 7.64023Z" fill="#C66720"/>
<path fill-rule="evenodd" clip-rule="evenodd" d="M2.86017 7.85214C2.8249 7.91988 2.79933 7.99216 2.7842 8.06689C2.77315 8.10655 2.74138 8.16947 2.75381 8.20367C2.7546 8.2081 2.75674 8.21219 2.75996 8.21537C2.76317 8.21855 2.76729 8.22067 2.77177 8.22145C2.82425 8.22145 2.82978 8.15306 2.83807 8.11613C2.8574 8.03543 2.87398 7.95199 2.9016 7.87266C2.91127 7.84941 2.87398 7.82752 2.86017 7.85214Z" fill="#C66720"/>
<path fill-rule="evenodd" clip-rule="evenodd" d="M4.10875 8.785C4.09632 8.92178 4.05212 9.05855 4.0535 9.20354C4.0535 9.24457 4.11841 9.25141 4.1198 9.20354C4.14067 9.06254 4.15404 8.92055 4.15985 8.77816C4.15847 8.7508 4.11151 8.75764 4.10875 8.785Z" fill="#C66720"/>
<path fill-rule="evenodd" clip-rule="evenodd" d="M4.45131 8.85596C4.40615 8.96379 4.3845 9.07985 4.38777 9.19654C4.38777 9.24031 4.45821 9.24851 4.4596 9.19654C4.46367 9.08362 4.47614 8.97116 4.49689 8.86006C4.50241 8.83818 4.46098 8.83134 4.45131 8.85596Z" fill="#C66720"/>
<path fill-rule="evenodd" clip-rule="evenodd" d="M10.0326 10.7231C10.0118 10.7746 9.99696 10.8283 9.98841 10.8831C9.97541 10.9322 9.96982 10.9829 9.97184 11.0335C9.97365 11.039 9.97717 11.0438 9.98188 11.0472C9.98659 11.0505 9.99226 11.0524 9.99808 11.0524C10.0039 11.0524 10.0096 11.0505 10.0143 11.0472C10.019 11.0438 10.0225 11.039 10.0243 11.0335C10.036 10.9889 10.042 10.9429 10.0423 10.8968C10.0506 10.8393 10.0533 10.7819 10.0644 10.7244C10.0671 10.7121 10.0395 10.708 10.0326 10.7231Z" fill="#C66720"/>
<path fill-rule="evenodd" clip-rule="evenodd" d="M10.4248 10.771C10.4032 10.8401 10.3884 10.9111 10.3806 10.983C10.3651 11.0433 10.3604 11.1058 10.3668 11.1677C10.3689 11.173 10.3726 11.1776 10.3774 11.1808C10.3822 11.184 10.3879 11.1857 10.3937 11.1857C10.3995 11.1857 10.4052 11.184 10.41 11.1808C10.4148 11.1776 10.4185 11.173 10.4206 11.1677C10.4354 11.1138 10.4419 11.058 10.44 11.0022C10.44 10.9256 10.4524 10.849 10.4593 10.7738C10.4586 10.7699 10.4566 10.7664 10.4537 10.7638C10.4507 10.7612 10.447 10.7596 10.4431 10.7593C10.4392 10.759 10.4353 10.76 10.4319 10.7621C10.4286 10.7642 10.4261 10.7673 10.4248 10.771Z" fill="#C66720"/>
<path fill-rule="evenodd" clip-rule="evenodd" d="M11.9842 11.0049C11.9842 10.983 11.958 10.9638 11.9469 10.9843C11.9113 11.052 11.8924 11.1269 11.8917 11.2032C11.8917 11.2415 11.882 11.34 11.9303 11.3495C11.9334 11.3506 11.9367 11.3511 11.9399 11.3509C11.9432 11.3508 11.9464 11.3499 11.9494 11.3485C11.9523 11.3472 11.955 11.3452 11.9571 11.3428C11.9593 11.3404 11.961 11.3376 11.9621 11.3345C11.9643 11.2919 11.9611 11.2491 11.9524 11.2073C11.9519 11.1386 11.9626 11.0702 11.9842 11.0049Z" fill="#C66720"/>
<path fill-rule="evenodd" clip-rule="evenodd" d="M12.3724 10.991C12.3714 10.988 12.3695 10.9853 12.3669 10.9834C12.3643 10.9815 12.3611 10.9805 12.3579 10.9805C12.3546 10.9805 12.3515 10.9815 12.3489 10.9834C12.3463 10.9853 12.3444 10.988 12.3434 10.991C12.3128 11.1079 12.3007 11.2288 12.3075 11.3494C12.3075 11.3863 12.3669 11.3904 12.3655 11.3494C12.359 11.2299 12.3613 11.1102 12.3724 10.991Z" fill="#C66720"/>
<path fill-rule="evenodd" clip-rule="evenodd" d="M12.7977 11.0334C12.7977 11.0287 12.7958 11.0242 12.7924 11.0208C12.7891 11.0175 12.7845 11.0156 12.7797 11.0156C12.775 11.0156 12.7704 11.0175 12.767 11.0208C12.7637 11.0242 12.7618 11.0287 12.7618 11.0334C12.7562 11.0881 12.7521 11.1428 12.7493 11.1975C12.7493 11.2372 12.7217 11.2892 12.7493 11.3234C12.7515 11.325 12.7542 11.3259 12.7569 11.3259C12.7597 11.3259 12.7624 11.325 12.7645 11.3234C12.8115 11.3234 12.8087 11.2482 12.8115 11.2126C12.814 11.1525 12.8094 11.0924 12.7977 11.0334Z" fill="#C66720"/>
<path fill-rule="evenodd" clip-rule="evenodd" d="M20.3639 10.1786C20.3639 10.1868 20.3639 10.1649 20.3639 10.1622C20.3555 10.1426 20.3486 10.1225 20.3431 10.102C20.3293 10.0487 20.3266 9.99121 20.31 9.93786C20.31 9.92282 20.2796 9.91461 20.2755 9.93786C20.2713 9.96112 20.2755 10.262 20.3611 10.2114C20.3641 10.21 20.3667 10.2078 20.3686 10.205C20.3705 10.2023 20.3716 10.1991 20.3719 10.1958C20.3722 10.1925 20.3716 10.1892 20.3702 10.1861C20.3688 10.1831 20.3666 10.1805 20.3639 10.1786Z" fill="#C66720"/>
<path fill-rule="evenodd" clip-rule="evenodd" d="M20.8555 10.0557C20.8281 9.97189 20.7949 9.89009 20.7561 9.81085C20.7542 9.80523 20.7502 9.80055 20.7449 9.79786C20.7396 9.79517 20.7334 9.79467 20.7277 9.79649C20.7221 9.7983 20.7174 9.80227 20.7146 9.80753C20.7119 9.81279 20.7114 9.8189 20.7132 9.82453C20.7338 9.91288 20.7606 9.99972 20.7934 10.0844C20.8085 10.1254 20.8721 10.0967 20.8555 10.0557Z" fill="#C66720"/>
<path fill-rule="evenodd" clip-rule="evenodd" d="M21.3278 9.81346C21.2798 9.74501 21.2472 9.66709 21.2325 9.58504C21.2312 9.58 21.2283 9.57552 21.2241 9.57232C21.22 9.56912 21.2149 9.56738 21.2097 9.56738C21.2044 9.56738 21.1993 9.56912 21.1952 9.57232C21.1911 9.57552 21.1881 9.58 21.1869 9.58504C21.1805 9.68311 21.2099 9.78018 21.2698 9.8586C21.296 9.90237 21.3554 9.85313 21.3278 9.81346Z" fill="#C66720"/>
<path fill-rule="evenodd" clip-rule="evenodd" d="M21.9162 9.74628C21.8698 9.70767 21.8318 9.66011 21.8045 9.6065C21.7772 9.55289 21.7611 9.49435 21.7574 9.43442C21.7577 9.43113 21.757 9.42783 21.7554 9.42494C21.7537 9.42205 21.7513 9.41971 21.7483 9.41824C21.7453 9.41676 21.7419 9.41621 21.7386 9.41666C21.7353 9.4171 21.7322 9.41853 21.7298 9.42075C21.6082 9.50555 21.7905 9.7244 21.8582 9.78868C21.8927 9.82698 21.9507 9.78048 21.9162 9.74628Z" fill="#C66720"/>
<path fill-rule="evenodd" clip-rule="evenodd" d="M22.5821 9.4347C22.5091 9.31218 22.4284 9.19432 22.3404 9.08181C22.3308 9.0654 22.299 9.07087 22.3059 9.09275C22.3487 9.22953 22.4703 9.32664 22.5297 9.45932C22.5448 9.49625 22.5973 9.47163 22.5821 9.4347Z" fill="#C66720"/>
<path fill-rule="evenodd" clip-rule="evenodd" d="M23.1315 9.01202C23.1191 8.98603 23.0859 8.97098 23.0638 8.95457L22.9547 8.87524C22.9271 8.85472 22.8981 8.83557 22.8691 8.81643C22.8401 8.79728 22.8387 8.80822 22.8263 8.80138C22.8138 8.79454 22.8152 8.80138 22.8193 8.80138C22.8235 8.80138 22.8263 8.82326 22.8359 8.83284C22.8604 8.85795 22.8862 8.88169 22.9133 8.90396C22.9478 8.93406 22.9837 8.96141 23.0196 8.98877C23.0555 9.01612 23.0749 9.03937 23.1066 9.03937C23.1101 9.0394 23.1136 9.03868 23.1168 9.03728C23.12 9.03587 23.1229 9.03381 23.1253 9.03122C23.1276 9.02864 23.1294 9.02559 23.1305 9.02228C23.1315 9.01897 23.1319 9.01547 23.1315 9.01202Z" fill="#C66720"/>
<path fill-rule="evenodd" clip-rule="evenodd" d="M23.5999 8.66992C23.5974 8.66196 23.5927 8.65484 23.5863 8.64931C23.58 8.64377 23.5723 8.64002 23.564 8.63846C23.5383 8.62663 23.5145 8.61095 23.4936 8.59195C23.4449 8.54971 23.403 8.50036 23.3693 8.4456C23.3541 8.42235 23.3182 8.4456 23.3292 8.47159C23.3587 8.537 23.4015 8.59567 23.4549 8.64393C23.4881 8.67402 23.5502 8.72463 23.593 8.69591C23.5968 8.69281 23.5994 8.68865 23.6007 8.684C23.6019 8.67934 23.6016 8.67442 23.5999 8.66992Z" fill="#C66720"/>
<path fill-rule="evenodd" clip-rule="evenodd" d="M25.1593 6.911C25.153 6.9036 25.1452 6.8976 25.1364 6.89336C25.1276 6.88912 25.118 6.88674 25.1082 6.88638C25.0775 6.88112 25.0483 6.86946 25.0226 6.85218C24.9676 6.81457 24.9264 6.76034 24.9052 6.69762C24.9052 6.6771 24.8693 6.68941 24.8706 6.70856C24.8792 6.78238 24.9163 6.85004 24.9742 6.89732C25.0143 6.93015 25.1124 6.98349 25.1579 6.93562C25.1611 6.93233 25.1629 6.92806 25.1632 6.92356C25.1634 6.91905 25.162 6.91461 25.1593 6.911Z" fill="#C66720"/>
<path fill-rule="evenodd" clip-rule="evenodd" d="M25.4644 6.5624C25.3477 6.50262 25.2494 6.41285 25.1798 6.30251C25.1674 6.282 25.1315 6.30251 25.1439 6.3203C25.2075 6.44657 25.3114 6.54851 25.4395 6.61027C25.4671 6.62121 25.492 6.57471 25.4644 6.5624Z" fill="#C66720"/>
<path fill-rule="evenodd" clip-rule="evenodd" d="M25.6537 6.07942C25.6007 6.04526 25.55 6.00779 25.5018 5.96727C25.4548 5.92486 25.4106 5.88246 25.3636 5.84416C25.3457 5.83049 25.3222 5.85647 25.3374 5.87426C25.4093 5.98497 25.5094 6.07506 25.6275 6.1355C25.6346 6.13729 25.6422 6.13653 25.6489 6.13338C25.6555 6.13022 25.6609 6.12486 25.664 6.11822C25.6671 6.11157 25.6678 6.10406 25.6659 6.09698C25.664 6.0899 25.6597 6.08369 25.6537 6.07942Z" fill="#C66720"/>
<path fill-rule="evenodd" clip-rule="evenodd" d="M2.25791 7.27904C2.13833 7.44133 2.05757 7.62842 2.02173 7.82616C2.02173 7.84257 2.04521 7.84394 2.04935 7.82616C2.09676 7.63835 2.18126 7.4617 2.29796 7.3064C2.31454 7.28041 2.27448 7.25305 2.25791 7.27904Z" fill="#C66720"/>
<path fill-rule="evenodd" clip-rule="evenodd" d="M2.04264 7.14348C2.01226 7.15716 1.99983 7.18315 1.97911 7.2105C1.95839 7.23786 1.92248 7.28983 1.89762 7.33224C1.86239 7.38086 1.84354 7.43926 1.84375 7.49911C1.84375 7.51962 1.87552 7.51552 1.8769 7.49911C1.89296 7.43719 1.92215 7.37937 1.96253 7.3295C1.99568 7.27889 2.0606 7.22144 2.0675 7.16126C2.06774 7.15822 2.06719 7.15517 2.0659 7.1524C2.0646 7.14963 2.06261 7.14724 2.06012 7.14546C2.05762 7.14367 2.0547 7.14255 2.05164 7.1422C2.04858 7.14186 2.04548 7.1423 2.04264 7.14348Z" fill="#C66720"/>
<path fill-rule="evenodd" clip-rule="evenodd" d="M2.44171 7.58791C2.40285 7.64977 2.37134 7.71586 2.34779 7.78487C2.31706 7.84927 2.29478 7.9173 2.28149 7.98731C2.28149 8.00509 2.30774 8.01056 2.31188 7.98731C2.32958 7.91989 2.35507 7.85472 2.38784 7.79308C2.42818 7.73092 2.4563 7.66178 2.47072 7.58928C2.4709 7.58547 2.46955 7.58175 2.46696 7.57892C2.46437 7.5761 2.46075 7.57442 2.4569 7.57424C2.45306 7.57405 2.4493 7.57539 2.44645 7.57796C2.4436 7.58052 2.44189 7.5841 2.44171 7.58791Z" fill="#C66720"/>
<path fill-rule="evenodd" clip-rule="evenodd" d="M3.19026 8.06689C3.08667 8.09835 3.03833 8.23377 3.01071 8.32814C3.00966 8.333 3.01044 8.33807 3.01288 8.34241C3.01533 8.34675 3.01928 8.35006 3.024 8.35173C3.02873 8.3534 3.0339 8.35332 3.03857 8.35149C3.04324 8.34967 3.04708 8.34623 3.04938 8.34182C3.06593 8.29403 3.0877 8.24816 3.11429 8.20504C3.14054 8.16401 3.17783 8.12981 3.20545 8.08878C3.21098 8.08057 3.20269 8.06689 3.19026 8.06689Z" fill="#C66720"/>
<path fill-rule="evenodd" clip-rule="evenodd" d="M3.41959 8.47737C3.36572 8.49652 3.33671 8.56354 3.31185 8.61415C3.28364 8.67297 3.27082 8.73788 3.27456 8.8029C3.27456 8.82479 3.30771 8.82889 3.30909 8.8029C3.31372 8.74851 3.32774 8.69531 3.35053 8.64561C3.37263 8.59226 3.42649 8.55123 3.44168 8.49788C3.44274 8.49489 3.44289 8.49165 3.44213 8.48856C3.44136 8.48548 3.43971 8.48269 3.43737 8.48051C3.43503 8.47834 3.4321 8.47689 3.42895 8.47633C3.42579 8.47577 3.42254 8.47613 3.41959 8.47737Z" fill="#C66720"/>
<path fill-rule="evenodd" clip-rule="evenodd" d="M3.6418 8.62054C3.59753 8.69047 3.56401 8.76653 3.54235 8.84623C3.51278 8.92051 3.49058 8.99747 3.47606 9.07602C3.47496 9.08073 3.4758 9.08569 3.47839 9.08979C3.48098 9.0939 3.48511 9.09681 3.48987 9.0979C3.49463 9.09899 3.49964 9.09816 3.50378 9.0956C3.50792 9.09303 3.51087 9.08894 3.51197 9.08422C3.53253 9.00806 3.55884 8.93353 3.5907 8.86127C3.62969 8.78869 3.65761 8.7108 3.67357 8.63012C3.6742 8.62805 3.67442 8.62588 3.67421 8.62373C3.674 8.62158 3.67336 8.6195 3.67233 8.61759C3.67131 8.61569 3.66991 8.614 3.66823 8.61263C3.66654 8.61126 3.6646 8.61023 3.66252 8.6096C3.66043 8.60897 3.65824 8.60875 3.65607 8.60896C3.6539 8.60917 3.65179 8.60981 3.64987 8.61082C3.64795 8.61184 3.64624 8.61322 3.64486 8.61489C3.64347 8.61655 3.64243 8.61848 3.6418 8.62054Z" fill="#C66720"/>
<path fill-rule="evenodd" clip-rule="evenodd" d="M3.84499 8.84096C3.79684 8.94779 3.77688 9.06498 3.78698 9.18154C3.78698 9.2048 3.82289 9.20753 3.82289 9.18154C3.82289 9.06802 3.87399 8.95586 3.86709 8.8437C3.86632 8.84153 3.86496 8.83962 3.86316 8.83818C3.86136 8.83674 3.85919 8.83583 3.85689 8.83554C3.8546 8.83526 3.85226 8.83562 3.85016 8.83657C3.84806 8.83753 3.84627 8.83905 3.84499 8.84096Z" fill="#C66720"/>
<path fill-rule="evenodd" clip-rule="evenodd" d="M10.8267 10.8763C10.7778 11.0031 10.7594 11.1393 10.7728 11.2743C10.7728 11.2921 10.8046 11.2907 10.806 11.2743C10.806 11.2087 10.8156 11.1376 10.8239 11.0787C10.8399 11.0138 10.8478 10.9472 10.8474 10.8804C10.8474 10.8667 10.8308 10.8681 10.8267 10.8763Z" fill="#C66720"/>
<path fill-rule="evenodd" clip-rule="evenodd" d="M11.1873 11.1388C11.1873 11.0758 11.2177 11.0198 11.2232 10.9568C11.2224 10.9547 11.221 10.9529 11.2192 10.9517C11.2173 10.9504 11.2151 10.9497 11.2129 10.9497C11.2106 10.9497 11.2084 10.9504 11.2065 10.9517C11.2047 10.9529 11.2033 10.9547 11.2025 10.9568C11.1624 11.0209 11.139 11.0938 11.1344 11.169C11.1298 11.2442 11.1442 11.3194 11.1763 11.3877C11.1859 11.4082 11.2135 11.3877 11.2066 11.374C11.182 11.2981 11.1753 11.2176 11.1873 11.1388Z" fill="#C66720"/>
<path fill-rule="evenodd" clip-rule="evenodd" d="M11.5188 11.1853C11.5231 11.1228 11.5175 11.06 11.5022 10.9992C11.5007 10.9964 11.4984 10.994 11.4956 10.9923C11.4928 10.9906 11.4896 10.9897 11.4864 10.9897C11.4831 10.9897 11.4799 10.9906 11.4771 10.9923C11.4743 10.994 11.472 10.9964 11.4705 10.9992C11.4587 11.0612 11.4587 11.1247 11.4705 11.1866C11.4745 11.258 11.487 11.3288 11.5078 11.3973C11.5078 11.4205 11.5506 11.415 11.5451 11.3973C11.5305 11.3274 11.5217 11.2565 11.5188 11.1853Z" fill="#C66720"/>
<path fill-rule="evenodd" clip-rule="evenodd" d="M23.948 8.06673C23.948 8.05168 23.9272 8.04347 23.9203 8.05578C23.9089 8.07356 23.9028 8.0942 23.9028 8.11528C23.9028 8.13636 23.9089 8.157 23.9203 8.17478C23.9424 8.21718 23.9963 8.2801 24.0488 8.27326C24.053 8.27228 24.0566 8.26974 24.0589 8.26617C24.0612 8.2626 24.062 8.25828 24.0612 8.25411C24.0474 8.18025 23.93 8.15016 23.948 8.06673Z" fill="#C66720"/>
<path fill-rule="evenodd" clip-rule="evenodd" d="M24.4467 7.84682C24.4329 7.82494 24.4205 7.8222 24.3956 7.814C24.3617 7.80346 24.3315 7.78352 24.3086 7.75655C24.2645 7.70491 24.2337 7.64342 24.2188 7.57737C24.2183 7.57467 24.2172 7.57211 24.2157 7.56983C24.2141 7.56754 24.2122 7.56558 24.2098 7.56406C24.2075 7.56254 24.205 7.56148 24.2022 7.56094C24.1995 7.56041 24.1967 7.56041 24.194 7.56095C24.1913 7.56149 24.1887 7.56256 24.1864 7.56409C24.1841 7.56561 24.1821 7.56758 24.1806 7.56986C24.179 7.57215 24.1779 7.57471 24.1774 7.57741C24.1769 7.58011 24.1769 7.58288 24.1774 7.58557C24.1899 7.66106 24.2207 7.73241 24.2672 7.79348C24.3017 7.83588 24.3929 7.90564 24.4481 7.86734C24.4501 7.8642 24.451 7.86054 24.4507 7.85686C24.4505 7.85319 24.4491 7.84968 24.4467 7.84682Z" fill="#C66720"/>
<path fill-rule="evenodd" clip-rule="evenodd" d="M24.6812 7.38289C24.6384 7.34049 24.5928 7.29809 24.5528 7.25295C24.5362 7.2338 24.5017 7.25295 24.5141 7.2762C24.5454 7.33125 24.5834 7.38225 24.6274 7.42803C24.6647 7.46633 24.7061 7.52788 24.7655 7.53198C24.7684 7.53222 24.7713 7.5318 24.774 7.53076C24.7767 7.52973 24.7792 7.5281 24.7812 7.52599C24.7832 7.52389 24.7847 7.52137 24.7855 7.51861C24.7864 7.51586 24.7866 7.51295 24.7862 7.51009C24.7779 7.45675 24.7227 7.42119 24.6812 7.38289Z" fill="#C66720"/>
<path opacity="0.4" fill-rule="evenodd" clip-rule="evenodd" d="M14.5877 2.6214C14.5877 2.99754 14.0063 3.3053 13.2867 3.3053C12.5671 3.3053 11.9856 3.00028 11.9856 2.6214C11.9856 2.24252 12.5671 1.9375 13.2867 1.9375C14.0063 1.9375 14.5877 2.24525 14.5877 2.6214Z" fill="#DA840D"/>
<path fill-rule="evenodd" clip-rule="evenodd" d="M21.7117 8.34016C18.7781 7.60292 17.5502 9.22102 17.5985 11.125C17.6179 11.8691 18.3029 12.8949 18.7532 13.6705C19.1526 14.2901 19.6185 14.8652 20.1427 15.3857C20.4742 15.6196 20.9161 15.889 21.3595 15.889C21.5295 15.8724 21.692 15.8116 21.8305 15.7126C21.8954 15.7252 21.9582 15.7468 22.0169 15.7769C22.2269 15.848 22.3194 15.558 22.5487 15.6606C22.9147 15.8261 23.231 15.4896 23.5045 15.3064C23.5929 15.2475 24.4713 13.8989 24.5666 13.8278C25.4713 12.6774 25.927 12.3382 25.9367 10.9417C25.9478 9.1964 25.0624 7.63301 21.7117 8.34016Z" fill="#C73A54"/>
<g style="mix-blend-mode:multiply">
<path fill-rule="evenodd" clip-rule="evenodd" d="M22.8237 8.79746C22.8237 8.99716 22.3072 9.17223 21.6594 9.18865C21.0116 9.20506 20.4826 9.05187 20.4771 8.85627C20.4716 8.66068 20.9937 8.47739 21.6414 8.46508C22.2892 8.45277 22.8182 8.59776 22.8237 8.79746Z" fill="#ED6366"/>
</g>
<path fill-rule="evenodd" clip-rule="evenodd" d="M19.8638 9.44271C19.6056 9.05562 19.0766 9.16915 18.7492 9.39621L18.7327 9.40851C18.6567 9.45936 18.5879 9.52008 18.5282 9.58906C18.2954 9.83372 18.1478 10.1458 18.107 10.4795C18.0669 10.8898 18.2064 11.3453 18.5642 11.5272C18.5743 11.5323 18.5825 11.5405 18.5876 11.5505C18.6014 11.5476 18.6148 11.5435 18.6277 11.5382C18.8293 11.4561 18.8197 11.1278 18.8211 10.961C18.8211 10.5903 19.1318 10.4262 19.4163 10.2675C19.6774 10.1184 20.0904 9.78329 19.8638 9.44271Z" fill="#ED6366"/>
<g style="mix-blend-mode:multiply">
<path fill-rule="evenodd" clip-rule="evenodd" d="M24.5376 12.6024C24.2945 12.2919 23.9298 12.6708 23.7558 12.8623C23.3511 13.3068 23.0984 13.8553 22.6205 14.241C22.1426 14.6267 21.2752 14.3463 20.9037 14.9071C20.8863 14.9341 20.8745 14.9643 20.8689 14.9958C20.8633 15.0274 20.8641 15.0597 20.8712 15.091C20.8782 15.1222 20.8914 15.1518 20.91 15.178C20.9287 15.2042 20.9523 15.2265 20.9796 15.2436C21.0183 15.2586 21.0586 15.2687 21.0998 15.2737C21.1857 15.3214 21.2791 15.3547 21.376 15.3722C21.679 15.4114 21.9867 15.3539 22.2545 15.208C22.4976 15.0931 22.7724 15.2272 23.0141 15.1136C23.1035 15.0654 23.1805 14.9976 23.2393 14.9153C23.3168 14.8263 23.3818 14.7274 23.4326 14.6212C23.5542 14.422 23.6928 14.2334 23.847 14.0577C24.0343 13.8471 24.2039 13.6216 24.3539 13.3834C24.5334 13.1276 24.6964 12.8075 24.5376 12.6024Z" fill="#ED6366"/>
</g>
<path fill-rule="evenodd" clip-rule="evenodd" d="M24.4605 5.74175C24.2975 5.68703 23.9978 5.93324 23.8707 6.00847C23.5807 6.18081 23.2865 6.35452 23.0075 6.54328C22.5837 6.83763 22.2324 7.22288 21.9799 7.67034C21.8745 7.86088 21.8039 8.06831 21.7713 8.28311C21.7284 8.39588 21.7069 8.51551 21.7078 8.63601C21.707 8.64445 21.708 8.65297 21.7105 8.66105C21.7131 8.66914 21.7173 8.67664 21.7228 8.68313C21.7283 8.68961 21.7351 8.69495 21.7427 8.69884C21.7503 8.70272 21.7586 8.70507 21.7672 8.70576C22.4743 8.71397 23.1981 8.25576 23.6925 7.79481C23.9516 7.56861 24.1568 7.28832 24.2933 6.97413C24.3614 6.79695 24.4123 6.61375 24.4453 6.42701C24.4839 6.22731 24.4259 5.98521 24.4909 5.80056C24.4944 5.78877 24.4932 5.77608 24.4875 5.76513C24.4819 5.75418 24.4722 5.74581 24.4605 5.74175Z" fill="#8DB54F"/>
<path fill-rule="evenodd" clip-rule="evenodd" d="M21.5889 8.68072C21.5889 8.48513 21.6483 8.36339 21.7049 7.74788C21.7615 7.13238 21.7505 6.82462 21.7919 6.7234C21.8333 6.62219 22.1648 6.83693 22.1648 6.83693C22.1648 6.83693 22.0585 7.30882 21.9797 7.69591C21.901 8.083 21.8223 8.7792 21.8223 8.7792C21.8223 8.7792 21.7795 8.89273 21.6759 8.86401C21.5723 8.83528 21.5889 8.68072 21.5889 8.68072Z" fill="#300D33"/>
</svg>
